<?xml version="1.0" standalone="no"?>
<!DOCTYPE svg PUBLIC "-//W3C//DTD SVG 20010904//EN"
 "http://www.w3.org/TR/2001/REC-SVG-20010904/DTD/svg10.dtd">
<svg version="1.0" xmlns="http://www.w3.org/2000/svg"
 width="249.000000pt" height="71.000000pt" viewBox="0 0 249.000000 71.000000"
 preserveAspectRatio="xMidYMid meet">

<g transform="translate(0.000000,71.000000) scale(0.100000,-0.100000)"
fill="#000000" stroke="none">
<path d="M30 404 l0 -235 28 3 27 3 3 103 3 102 59 0 c57 0 60 1 60 25 0 24
-3 25 -60 25 l-60 0 0 75 0 75 90 0 90 0 0 30 0 30 -120 0 -120 0 0 -236z"/>
<path d="M382 620 c-54 -33 -64 -72 -60 -232 l3 -139 42 -40 c52 -48 83 -52
83 -9 0 18 -5 30 -13 30 -8 0 -23 10 -35 23 -20 21 -22 34 -22 146 0 131 12
174 50 186 13 4 20 15 20 31 0 30 -23 31 -68 4z"/>
<path d="M490 618 c0 -15 11 -29 30 -40 42 -24 50 -53 50 -174 0 -116 -13
-158 -55 -174 -29 -11 -36 -60 -10 -60 26 0 72 28 94 56 19 24 21 40 21 182
l0 154 -39 39 c-46 46 -91 54 -91 17z"/>
<path d="M680 405 l0 -235 30 0 30 0 0 235 0 235 -30 0 -30 0 0 -235z"/>
<path d="M770 615 c0 -22 4 -25 36 -25 36 0 73 -15 86 -34 4 -6 8 -29 8 -52 0
-54 -22 -74 -83 -74 -46 0 -47 -1 -47 -30 0 -30 1 -30 54 -30 35 0 58 -5 66
-15 10 -12 28 -114 30 -172 0 -7 12 -13 26 -13 l27 0 -7 88 c-5 61 -12 95 -26
113 -19 26 -19 27 1 65 23 45 24 92 5 139 -18 43 -61 65 -126 65 -47 0 -50 -2
-50 -25z"/>
<path d="M1020 405 l0 -235 120 0 120 0 0 30 0 30 -90 0 -90 0 0 75 0 75 60 0
c57 0 60 1 60 25 0 24 -3 25 -60 25 l-60 0 0 75 0 75 90 0 90 0 0 30 0 30
-120 0 -120 0 0 -235z"/>
<path d="M1302 628 c2 -7 33 -113 68 -235 64 -224 82 -259 96 -189 4 26 -8 85
-52 235 l-58 201 -29 0 c-19 0 -28 -4 -25 -12z"/>
<path d="M1503 516 c-37 -112 -40 -128 -30 -165 6 -23 14 -41 17 -41 3 0 26
64 52 143 67 205 64 187 31 187 -28 0 -30 -4 -70 -124z"/>
<path d="M1640 405 l0 -235 120 0 120 0 0 30 0 30 -90 0 -90 0 0 75 0 75 60 0
c57 0 60 1 60 25 0 24 -3 25 -60 25 l-60 0 0 75 0 75 90 0 90 0 0 30 0 30
-120 0 -120 0 0 -235z"/>
<path d="M1940 405 l0 -235 30 0 30 0 0 235 0 235 -30 0 -30 0 0 -235z"/>
<path d="M2030 615 c0 -22 4 -25 36 -25 36 0 73 -15 86 -34 4 -6 8 -29 8 -52
0 -54 -22 -74 -83 -74 -46 0 -47 -1 -47 -30 0 -30 1 -30 54 -30 36 0 58 -5 66
-15 10 -12 23 -93 29 -177 1 -5 13 -8 27 -8 l26 0 -6 88 c-5 61 -13 95 -26
113 -19 26 -19 28 1 65 23 47 24 95 2 141 -20 42 -62 63 -128 63 -41 0 -45 -2
-45 -25z"/>
</g>
</svg>
